<svg class="dfig" viewBox="0 0 1120 470" preserveAspectRatio="xMidYMid meet" role="img" data-sim="5" data-sim-label="stage" xmlns="http://www.w3.org/2000/svg"><defs><marker id="arw-web" viewBox="0 0 10 10" refX="9" refY="5" markerWidth="6" markerHeight="6" orient="auto-start-reverse"><path d="M0,1 L9,5 L0,9 z" fill="#5FC9DE"/></marker></defs><style></style><text x="74.0" y="56.0" text-anchor="start" dominant-baseline="middle" fill="#EAF2FF" style="font:600 14.5px Inter, system-ui, -apple-system, 'Segoe UI', sans-serif">the waves themselves</text><line x1="74.0" y1="218.0" x2="534.0" y2="218.0" stroke="rgba(160,205,255,0.22)" stroke-width="1" stroke-linecap="round" stroke-dasharray="3 4"/><path d="M74.0,218.0 L75.9,179.8 L77.8,147.7 L79.8,126.7 L81.7,120.0 L83.6,128.9 L85.5,151.8 L87.4,185.2 L89.3,223.7 L91.2,261.4 L93.2,292.2 L95.1,311.3 L97.0,315.6 L98.9,304.6 L100.8,279.9 L102.8,245.4 L104.7,206.6 L106.6,169.6 L108.5,140.2 L110.4,123.1 L112.3,121.0 L114.2,134.2 L116.2,160.7 L118.1,196.2 L120.0,235.1 L121.9,271.3 L123.8,299.1 L125.8,314.1 L127.7,314.0 L129.6,298.6 L131.5,270.6 L133.4,234.2 L135.3,195.3 L137.2,160.0 L139.2,133.8 L141.1,120.9 L143.0,123.4 L144.9,140.8 L146.8,170.3 L148.8,207.4 L150.7,246.2 L152.6,280.5 L154.5,305.0 L156.4,315.7 L158.3,311.0 L160.2,291.6 L162.2,260.6 L164.1,222.9 L166.0,184.4 L167.9,151.2 L169.8,128.5 L171.8,120.0 L173.7,127.0 L175.6,148.3 L177.5,180.6 L179.4,218.9 L181.3,257.0 L183.2,288.9 L185.2,309.7 L187.1,315.9 L189.0,306.7 L190.9,283.6 L192.8,250.0 L194.8,211.4 L196.7,173.9 L198.6,143.3 L200.5,124.5 L202.4,120.5 L204.3,131.8 L206.2,156.8 L208.2,191.5 L210.1,230.3 L212.0,267.2 L213.9,296.3 L215.8,313.1 L217.8,314.8 L219.7,301.3 L221.6,274.6 L223.5,239.0 L225.4,200.1 L227.3,164.0 L229.2,136.4 L231.2,121.7 L233.1,122.2 L235.0,137.9 L236.9,166.1 L238.8,202.6 L240.8,241.5 L242.7,276.7 L244.6,302.6 L246.5,315.2 L248.4,312.4 L250.3,294.7 L252.2,264.9 L254.2,227.7 L256.1,189.0 L258.0,154.8 L259.9,130.6 L261.8,120.2 L263.8,125.3 L265.7,145.0 L267.6,176.2 L269.5,214.0 L271.4,252.5 L273.3,285.5 L275.2,307.8 L277.2,316.0 L279.1,308.7 L281.0,287.1 L282.9,254.6 L284.8,216.3 L286.8,178.2 L288.7,146.5 L290.6,126.0 L292.5,120.1 L294.4,129.6 L296.3,153.1 L298.2,186.8 L300.2,225.5 L302.1,262.9 L304.0,293.3 L305.9,311.8 L307.8,315.5 L309.8,303.8 L311.7,278.5 L313.6,243.7 L315.5,204.9 L317.4,168.1 L319.3,139.2 L321.2,122.7 L323.2,121.3 L325.1,135.2 L327.0,162.1 L328.9,197.9 L330.8,236.8 L332.8,272.8 L334.7,300.1 L336.6,314.5 L338.5,313.6 L340.4,297.6 L342.3,269.1 L344.2,232.5 L346.2,193.6 L348.1,158.6 L350.0,132.9 L351.9,120.7 L353.8,123.8 L355.8,141.8 L357.7,171.9 L359.6,209.2 L361.5,247.9 L363.4,281.9 L365.3,305.8 L367.2,315.8 L369.2,310.4 L371.1,290.4 L373.0,259.0 L374.9,221.1 L376.8,182.7 L378.8,149.9 L380.7,127.8 L382.6,120.0 L384.5,127.6 L386.4,149.5 L388.3,182.2 L390.2,220.6 L392.2,258.5 L394.1,290.1 L396.0,310.3 L397.9,315.8 L399.8,306.0 L401.8,282.3 L403.7,248.4 L405.6,209.7 L407.5,172.3 L409.4,142.2 L411.3,124.0 L413.2,120.6 L415.2,132.7 L417.1,158.2 L419.0,193.1 L420.9,232.0 L422.8,268.7 L424.8,297.3 L426.7,313.5 L428.6,314.5 L430.5,300.4 L432.4,273.2 L434.3,237.3 L436.2,198.4 L438.2,162.5 L440.1,135.4 L442.0,121.4 L443.9,122.6 L445.8,138.9 L447.8,167.6 L449.7,204.3 L451.6,243.2 L453.5,278.1 L455.4,303.5 L457.3,315.4 L459.2,311.9 L461.2,293.6 L463.1,263.4 L465.0,226.0 L466.9,187.3 L468.8,153.5 L470.8,129.9 L472.7,120.1 L474.6,125.9 L476.5,146.1 L478.4,177.8 L480.3,215.7 L482.2,254.1 L484.2,286.7 L486.1,308.5 L488.0,316.0 L489.9,308.0 L491.8,285.8 L493.8,252.9 L495.7,214.5 L497.6,176.7 L499.5,145.3 L501.4,125.5 L503.3,120.2 L505.2,130.4 L507.2,154.4 L509.1,188.5 L511.0,227.2 L512.9,264.5 L514.8,294.4 L516.8,312.3 L518.7,315.3 L520.6,302.9 L522.5,277.1 L524.4,242.0 L526.3,203.1 L528.2,166.6 L530.2,138.2 L532.1,122.3 L534.0,121.6" fill="none" stroke="#22D3EE" stroke-width="2" opacity="0.95" data-step="1"/><text x="80.0" y="374.0" text-anchor="start" dominant-baseline="middle" fill="#22D3EE" style="font:400 12px Inter, system-ui, -apple-system, 'Segoe UI', sans-serif" data-step="1">— dim 0 — fastest</text><path d="M74.0,218.0 L75.9,216.8 L77.8,215.5 L79.8,214.3 L81.7,213.0 L83.6,211.8 L85.5,210.6 L87.4,209.3 L89.3,208.1 L91.2,206.9 L93.2,205.6 L95.1,204.4 L97.0,203.2 L98.9,202.0 L100.8,200.7 L102.8,199.5 L104.7,198.3 L106.6,197.1 L108.5,195.9 L110.4,194.7 L112.3,193.5 L114.2,192.3 L116.2,191.1 L118.1,189.9 L120.0,188.7 L121.9,187.5 L123.8,186.3 L125.8,185.2 L127.7,184.0 L129.6,182.9 L131.5,181.7 L133.4,180.5 L135.3,179.4 L137.2,178.3 L139.2,177.1 L141.1,176.0 L143.0,174.9 L144.9,173.8 L146.8,172.7 L148.8,171.6 L150.7,170.5 L152.6,169.4 L154.5,168.4 L156.4,167.3 L158.3,166.2 L160.2,165.2 L162.2,164.1 L164.1,163.1 L166.0,162.1 L167.9,161.1 L169.8,160.1 L171.8,159.1 L173.7,158.1 L175.6,157.1 L177.5,156.1 L179.4,155.2 L181.3,154.2 L183.2,153.3 L185.2,152.4 L187.1,151.5 L189.0,150.6 L190.9,149.7 L192.8,148.8 L194.8,147.9 L196.7,147.1 L198.6,146.2 L200.5,145.4 L202.4,144.5 L204.3,143.7 L206.2,142.9 L208.2,142.1 L210.1,141.4 L212.0,140.6 L213.9,139.8 L215.8,139.1 L217.8,138.4 L219.7,137.6 L221.6,136.9 L223.5,136.3 L225.4,135.6 L227.3,134.9 L229.2,134.3 L231.2,133.6 L233.1,133.0 L235.0,132.4 L236.9,131.8 L238.8,131.2 L240.8,130.6 L242.7,130.1 L244.6,129.5 L246.5,129.0 L248.4,128.5 L250.3,128.0 L252.2,127.5 L254.2,127.1 L256.1,126.6 L258.0,126.2 L259.9,125.7 L261.8,125.3 L263.8,124.9 L265.7,124.5 L267.6,124.2 L269.5,123.8 L271.4,123.5 L273.3,123.2 L275.2,122.9 L277.2,122.6 L279.1,122.3 L281.0,122.0 L282.9,121.8 L284.8,121.6 L286.8,121.4 L288.7,121.2 L290.6,121.0 L292.5,120.8 L294.4,120.7 L296.3,120.5 L298.2,120.4 L300.2,120.3 L302.1,120.2 L304.0,120.1 L305.9,120.1 L307.8,120.0 L309.8,120.0 L311.7,120.0 L313.6,120.0 L315.5,120.0 L317.4,120.1 L319.3,120.1 L321.2,120.2 L323.2,120.3 L325.1,120.4 L327.0,120.5 L328.9,120.6 L330.8,120.8 L332.8,120.9 L334.7,121.1 L336.6,121.3 L338.5,121.5 L340.4,121.7 L342.3,122.0 L344.2,122.2 L346.2,122.5 L348.1,122.8 L350.0,123.1 L351.9,123.4 L353.8,123.7 L355.8,124.1 L357.7,124.4 L359.6,124.8 L361.5,125.2 L363.4,125.6 L365.3,126.0 L367.2,126.4 L369.2,126.9 L371.1,127.4 L373.0,127.8 L374.9,128.3 L376.8,128.8 L378.8,129.4 L380.7,129.9 L382.6,130.4 L384.5,131.0 L386.4,131.6 L388.3,132.2 L390.2,132.8 L392.2,133.4 L394.1,134.0 L396.0,134.7 L397.9,135.3 L399.8,136.0 L401.8,136.7 L403.7,137.4 L405.6,138.1 L407.5,138.8 L409.4,139.6 L411.3,140.3 L413.2,141.1 L415.2,141.8 L417.1,142.6 L419.0,143.4 L420.9,144.2 L422.8,145.1 L424.8,145.9 L426.7,146.7 L428.6,147.6 L430.5,148.5 L432.4,149.3 L434.3,150.2 L436.2,151.1 L438.2,152.0 L440.1,153.0 L442.0,153.9 L443.9,154.8 L445.8,155.8 L447.8,156.8 L449.7,157.7 L451.6,158.7 L453.5,159.7 L455.4,160.7 L457.3,161.7 L459.2,162.7 L461.2,163.8 L463.1,164.8 L465.0,165.8 L466.9,166.9 L468.8,168.0 L470.8,169.0 L472.7,170.1 L474.6,171.2 L476.5,172.3 L478.4,173.4 L480.3,174.5 L482.2,175.6 L484.2,176.7 L486.1,177.9 L488.0,179.0 L489.9,180.1 L491.8,181.3 L493.8,182.4 L495.7,183.6 L497.6,184.8 L499.5,185.9 L501.4,187.1 L503.3,188.3 L505.2,189.5 L507.2,190.6 L509.1,191.8 L511.0,193.0 L512.9,194.2 L514.8,195.4 L516.8,196.6 L518.7,197.9 L520.6,199.1 L522.5,200.3 L524.4,201.5 L526.3,202.7 L528.2,204.0 L530.2,205.2 L532.1,206.4 L534.0,207.7" fill="none" stroke="#F5B301" stroke-width="2" opacity="0.95" data-step="2"/><text x="80.0" y="393.0" text-anchor="start" dominant-baseline="middle" fill="#F5B301" style="font:400 12px Inter, system-ui, -apple-system, 'Segoe UI', sans-serif" data-step="2">— dim 6</text><path d="M74.0,218.0 L75.9,218.0 L77.8,218.0 L79.8,218.0 L81.7,218.0 L83.6,217.9 L85.5,217.9 L87.4,217.9 L89.3,217.9 L91.2,217.9 L93.2,217.9 L95.1,217.9 L97.0,217.9 L98.9,217.8 L100.8,217.8 L102.8,217.8 L104.7,217.8 L106.6,217.8 L108.5,217.8 L110.4,217.8 L112.3,217.8 L114.2,217.7 L116.2,217.7 L118.1,217.7 L120.0,217.7 L121.9,217.7 L123.8,217.7 L125.8,217.7 L127.7,217.7 L129.6,217.6 L131.5,217.6 L133.4,217.6 L135.3,217.6 L137.2,217.6 L139.2,217.6 L141.1,217.6 L143.0,217.6 L144.9,217.5 L146.8,217.5 L148.8,217.5 L150.7,217.5 L152.6,217.5 L154.5,217.5 L156.4,217.5 L158.3,217.5 L160.2,217.4 L162.2,217.4 L164.1,217.4 L166.0,217.4 L167.9,217.4 L169.8,217.4 L171.8,217.4 L173.7,217.4 L175.6,217.3 L177.5,217.3 L179.4,217.3 L181.3,217.3 L183.2,217.3 L185.2,217.3 L187.1,217.3 L189.0,217.3 L190.9,217.2 L192.8,217.2 L194.8,217.2 L196.7,217.2 L198.6,217.2 L200.5,217.2 L202.4,217.2 L204.3,217.2 L206.2,217.1 L208.2,217.1 L210.1,217.1 L212.0,217.1 L213.9,217.1 L215.8,217.1 L217.8,217.1 L219.7,217.1 L221.6,217.0 L223.5,217.0 L225.4,217.0 L227.3,217.0 L229.2,217.0 L231.2,217.0 L233.1,217.0 L235.0,217.0 L236.9,216.9 L238.8,216.9 L240.8,216.9 L242.7,216.9 L244.6,216.9 L246.5,216.9 L248.4,216.9 L250.3,216.9 L252.2,216.8 L254.2,216.8 L256.1,216.8 L258.0,216.8 L259.9,216.8 L261.8,216.8 L263.8,216.8 L265.7,216.8 L267.6,216.7 L269.5,216.7 L271.4,216.7 L273.3,216.7 L275.2,216.7 L277.2,216.7 L279.1,216.7 L281.0,216.7 L282.9,216.6 L284.8,216.6 L286.8,216.6 L288.7,216.6 L290.6,216.6 L292.5,216.6 L294.4,216.6 L296.3,216.6 L298.2,216.5 L300.2,216.5 L302.1,216.5 L304.0,216.5 L305.9,216.5 L307.8,216.5 L309.8,216.5 L311.7,216.5 L313.6,216.5 L315.5,216.4 L317.4,216.4 L319.3,216.4 L321.2,216.4 L323.2,216.4 L325.1,216.4 L327.0,216.4 L328.9,216.4 L330.8,216.3 L332.8,216.3 L334.7,216.3 L336.6,216.3 L338.5,216.3 L340.4,216.3 L342.3,216.3 L344.2,216.3 L346.2,216.2 L348.1,216.2 L350.0,216.2 L351.9,216.2 L353.8,216.2 L355.8,216.2 L357.7,216.2 L359.6,216.2 L361.5,216.1 L363.4,216.1 L365.3,216.1 L367.2,216.1 L369.2,216.1 L371.1,216.1 L373.0,216.1 L374.9,216.1 L376.8,216.0 L378.8,216.0 L380.7,216.0 L382.6,216.0 L384.5,216.0 L386.4,216.0 L388.3,216.0 L390.2,216.0 L392.2,215.9 L394.1,215.9 L396.0,215.9 L397.9,215.9 L399.8,215.9 L401.8,215.9 L403.7,215.9 L405.6,215.9 L407.5,215.8 L409.4,215.8 L411.3,215.8 L413.2,215.8 L415.2,215.8 L417.1,215.8 L419.0,215.8 L420.9,215.8 L422.8,215.7 L424.8,215.7 L426.7,215.7 L428.6,215.7 L430.5,215.7 L432.4,215.7 L434.3,215.7 L436.2,215.7 L438.2,215.6 L440.1,215.6 L442.0,215.6 L443.9,215.6 L445.8,215.6 L447.8,215.6 L449.7,215.6 L451.6,215.6 L453.5,215.5 L455.4,215.5 L457.3,215.5 L459.2,215.5 L461.2,215.5 L463.1,215.5 L465.0,215.5 L466.9,215.5 L468.8,215.4 L470.8,215.4 L472.7,215.4 L474.6,215.4 L476.5,215.4 L478.4,215.4 L480.3,215.4 L482.2,215.4 L484.2,215.3 L486.1,215.3 L488.0,215.3 L489.9,215.3 L491.8,215.3 L493.8,215.3 L495.7,215.3 L497.6,215.3 L499.5,215.2 L501.4,215.2 L503.3,215.2 L505.2,215.2 L507.2,215.2 L509.1,215.2 L511.0,215.2 L512.9,215.2 L514.8,215.1 L516.8,215.1 L518.7,215.1 L520.6,215.1 L522.5,215.1 L524.4,215.1 L526.3,215.1 L528.2,215.1 L530.2,215.1 L532.1,215.0 L534.0,215.0" fill="none" stroke="#7BD949" stroke-width="2" opacity="0.95" data-step="3"/><text x="80.0" y="412.0" text-anchor="start" dominant-baseline="middle" fill="#7BD949" style="font:400 12px Inter, system-ui, -apple-system, 'Segoe UI', sans-serif" data-step="3">— dim 14 — slowest</text><text x="534.0" y="350.0" text-anchor="end" dominant-baseline="middle" fill="#8FA6C6" style="font:400 12px Inter, system-ui, -apple-system, 'Segoe UI', sans-serif">position →</text><text x="64.0" y="116.0" text-anchor="end" dominant-baseline="middle" fill="#8FA6C6" style="font:400 11px ui-monospace, 'JetBrains Mono', 'SF Mono', Menlo, monospace">+1</text><text x="64.0" y="320.0" text-anchor="end" dominant-baseline="middle" fill="#8FA6C6" style="font:400 11px ui-monospace, 'JetBrains Mono', 'SF Mono', Menlo, monospace">−1</text><text x="640.0" y="56.0" text-anchor="start" dominant-baseline="middle" fill="#EAF2FF" style="font:600 14.5px Inter, system-ui, -apple-system, 'Segoe UI', sans-serif">every dimension, every position</text><rect x="640.0" y="108.0" width="24.0" height="18.0" rx="2" fill="#F5B301" stroke="none" stroke-width="0" opacity="0.12" data-step="4"/><rect x="666.0" y="108.0" width="24.0" height="18.0" rx="2" fill="#F5B301" stroke="none" stroke-width="0" opacity="0.9" data-step="4"/><rect x="692.0" y="108.0" width="24.0" height="18.0" rx="2" fill="#F5B301" stroke="none" stroke-width="0" opacity="0.12" data-step="4"/><rect x="718.0" y="108.0" width="24.0" height="18.0" rx="2" fill="#F5B301" stroke="none" stroke-width="0" opacity="0.9" data-step="4"/><rect x="744.0" y="108.0" width="24.0" height="18.0" rx="2" fill="#F5B301" stroke="none" stroke-width="0" opacity="0.12" data-step="4"/><rect x="770.0" y="108.0" width="24.0" height="18.0" rx="2" fill="#F5B301" stroke="none" stroke-width="0" opacity="0.9" data-step="4"/><rect x="796.0" y="108.0" width="24.0" height="18.0" rx="2" fill="#F5B301" stroke="none" stroke-width="0" opacity="0.12" data-step="4"/><rect x="822.0" y="108.0" width="24.0" height="18.0" rx="2" fill="#F5B301" stroke="none" stroke-width="0" opacity="0.9" data-step="4"/><rect x="848.0" y="108.0" width="24.0" height="18.0" rx="2" fill="#F5B301" stroke="none" stroke-width="0" opacity="0.12" data-step="4"/><rect x="874.0" y="108.0" width="24.0" height="18.0" rx="2" fill="#F5B301" stroke="none" stroke-width="0" opacity="0.9" data-step="4"/><rect x="900.0" y="108.0" width="24.0" height="18.0" rx="2" fill="#F5B301" stroke="none" stroke-width="0" opacity="0.12" data-step="4"/><rect x="926.0" y="108.0" width="24.0" height="18.0" rx="2" fill="#F5B301" stroke="none" stroke-width="0" opacity="0.9" data-step="4"/><rect x="952.0" y="108.0" width="24.0" height="18.0" rx="2" fill="#F5B301" stroke="none" stroke-width="0" opacity="0.12" data-step="4"/><rect x="978.0" y="108.0" width="24.0" height="18.0" rx="2" fill="#F5B301" stroke="none" stroke-width="0" opacity="0.9" data-step="4"/><rect x="1004.0" y="108.0" width="24.0" height="18.0" rx="2" fill="#F5B301" stroke="none" stroke-width="0" opacity="0.12" data-step="4"/><rect x="1030.0" y="108.0" width="24.0" height="18.0" rx="2" fill="#F5B301" stroke="none" stroke-width="0" opacity="0.9" data-step="4"/><rect x="640.0" y="128.0" width="24.0" height="18.0" rx="2" fill="#F5B301" stroke="none" stroke-width="0" opacity="0.7763473681501593" data-step="4"/><rect x="666.0" y="128.0" width="24.0" height="18.0" rx="2" fill="#F5B301" stroke="none" stroke-width="0" opacity="0.541435798577149" data-step="4"/><rect x="692.0" y="128.0" width="24.0" height="18.0" rx="2" fill="#F5B301" stroke="none" stroke-width="0" opacity="0.3625672024676049" data-step="4"/><rect x="718.0" y="128.0" width="24.0" height="18.0" rx="2" fill="#F5B301" stroke="none" stroke-width="0" opacity="0.8613239185990427" data-step="4"/><rect x="744.0" y="128.0" width="24.0" height="18.0" rx="2" fill="#F5B301" stroke="none" stroke-width="0" opacity="0.19787006498452597" data-step="4"/><rect x="770.0" y="128.0" width="24.0" height="18.0" rx="2" fill="#F5B301" stroke="none" stroke-width="0" opacity="0.8961032489168601" data-step="4"/><rect x="796.0" y="128.0" width="24.0" height="18.0" rx="2" fill="#F5B301" stroke="none" stroke-width="0" opacity="0.1446616549938983" data-step="4"/><rect x="822.0" y="128.0" width="24.0" height="18.0" rx="2" fill="#F5B301" stroke="none" stroke-width="0" opacity="0.8996100324989167" data-step="4"/><rect x="848.0" y="128.0" width="24.0" height="18.0" rx="2" fill="#F5B301" stroke="none" stroke-width="0" opacity="0.12779987000065" data-step="4"/><rect x="874.0" y="128.0" width="24.0" height="18.0" rx="2" fill="#F5B301" stroke="none" stroke-width="0" opacity="0.8999610003249989" data-step="4"/><rect x="900.0" y="128.0" width="24.0" height="18.0" rx="2" fill="#F5B301" stroke="none" stroke-width="0" opacity="0.12246657246397243" data-step="4"/><rect x="926.0" y="128.0" width="24.0" height="18.0" rx="2" fill="#F5B301" stroke="none" stroke-width="0" opacity="0.89999610000325" data-step="4"/><rect x="952.0" y="128.0" width="24.0" height="18.0" rx="2" fill="#F5B301" stroke="none" stroke-width="0" opacity="0.12077999987" data-step="4"/><rect x="978.0" y="128.0" width="24.0" height="18.0" rx="2" fill="#F5B301" stroke="none" stroke-width="0" opacity="0.8999996100000325" data-step="4"/><rect x="1004.0" y="128.0" width="24.0" height="18.0" rx="2" fill="#F5B301" stroke="none" stroke-width="0" opacity="0.12024665765338217" data-step="4"/><rect x="1030.0" y="128.0" width="24.0" height="18.0" rx="2" fill="#F5B301" stroke="none" stroke-width="0" opacity="0.8999999610000003" data-step="4"/><rect x="640.0" y="148.0" width="24.0" height="18.0" rx="2" fill="#F5B301" stroke="none" stroke-width="0" opacity="0.8292519929240317" data-step="4"/><rect x="666.0" y="148.0" width="24.0" height="18.0" rx="2" fill="#22D3EE" stroke="none" stroke-width="0" opacity="0.44459453250677106" data-step="4"/><rect x="692.0" y="148.0" width="24.0" height="18.0" rx="2" fill="#F5B301" stroke="none" stroke-width="0" opacity="0.5810791514279288" data-step="4"/><rect x="718.0" y="148.0" width="24.0" height="18.0" rx="2" fill="#F5B301" stroke="none" stroke-width="0" opacity="0.7491311597103589" data-step="4"/><rect x="744.0" y="148.0" width="24.0" height="18.0" rx="2" fill="#F5B301" stroke="none" stroke-width="0" opacity="0.2749620780201477" data-step="4"/><rect x="770.0" y="148.0" width="24.0" height="18.0" rx="2" fill="#F5B301" stroke="none" stroke-width="0" opacity="0.8844519307161685" data-step="4"/><rect x="796.0" y="148.0" width="24.0" height="18.0" rx="2" fill="#F5B301" stroke="none" stroke-width="0" opacity="0.1692986503878721" data-step="4"/><rect x="822.0" y="148.0" width="24.0" height="18.0" rx="2" fill="#F5B301" stroke="none" stroke-width="0" opacity="0.8984405199306716" data-step="4"/><rect x="848.0" y="148.0" width="24.0" height="18.0" rx="2" fill="#F5B301" stroke="none" stroke-width="0" opacity="0.1355989600207998" data-step="4"/><rect x="874.0" y="148.0" width="24.0" height="18.0" rx="2" fill="#F5B301" stroke="none" stroke-width="0" opacity="0.8998440051999307" data-step="4"/><rect x="900.0" y="148.0" width="24.0" height="18.0" rx="2" fill="#F5B301" stroke="none" stroke-width="0" opacity="0.12493312026224078" data-step="4"/><rect x="926.0" y="148.0" width="24.0" height="18.0" rx="2" fill="#F5B301" stroke="none" stroke-width="0" opacity="0.899984400052" data-step="4"/><rect x="952.0" y="148.0" width="24.0" height="18.0" rx="2" fill="#F5B301" stroke="none" stroke-width="0" opacity="0.1215599989600002" data-step="4"/><rect x="978.0" y="148.0" width="24.0" height="18.0" rx="2" fill="#F5B301" stroke="none" stroke-width="0" opacity="0.89999844000052" data-step="4"/><rect x="1004.0" y="148.0" width="24.0" height="18.0" rx="2" fill="#F5B301" stroke="none" stroke-width="0" opacity="0.12049331528209857" data-step="4"/><rect x="1030.0" y="148.0" width="24.0" height="18.0" rx="2" fill="#F5B301" stroke="none" stroke-width="0" opacity="0.8999998440000052" data-step="4"/><rect x="640.0" y="168.0" width="24.0" height="18.0" rx="2" fill="#F5B301" stroke="none" stroke-width="0" opacity="0.23007360628669643" data-step="4"/><rect x="666.0" y="168.0" width="24.0" height="18.0" rx="2" fill="#22D3EE" stroke="none" stroke-width="0" opacity="0.8921941473483475" data-step="4"/><rect x="692.0" y="168.0" width="24.0" height="18.0" rx="2" fill="#F5B301" stroke="none" stroke-width="0" opacity="0.7538661393807887" data-step="4"/><rect x="718.0" y="168.0" width="24.0" height="18.0" rx="2" fill="#F5B301" stroke="none" stroke-width="0" opacity="0.5745478163477353" data-step="4"/><rect x="744.0" y="168.0" width="24.0" height="18.0" rx="2" fill="#F5B301" stroke="none" stroke-width="0" opacity="0.35050576119584487" data-step="4"/><rect x="770.0" y="168.0" width="24.0" height="18.0" rx="2" fill="#F5B301" stroke="none" stroke-width="0" opacity="0.8651624615179727" data-step="4"/><rect x="796.0" y="168.0" width="24.0" height="18.0" rx="2" fill="#F5B301" stroke="none" stroke-width="0" opacity="0.19388635123954195" data-step="4"/><rect x="822.0" y="168.0" width="24.0" height="18.0" rx="2" fill="#F5B301" stroke="none" stroke-width="0" opacity="0.896492631710377" data-step="4"/><rect x="848.0" y="168.0" width="24.0" height="18.0" rx="2" fill="#F5B301" stroke="none" stroke-width="0" opacity="0.14339649015794662" data-step="4"/><rect x="874.0" y="168.0" width="24.0" height="18.0" rx="2" fill="#F5B301" stroke="none" stroke-width="0" opacity="0.8996490263242103" data-step="4"/><rect x="900.0" y="168.0" width="24.0" height="18.0" rx="2" fill="#F5B301" stroke="none" stroke-width="0" opacity="0.1273996187293476" data-step="4"/><rect x="926.0" y="168.0" width="24.0" height="18.0" rx="2" fill="#F5B301" stroke="none" stroke-width="0" opacity="0.8999649002632492" data-step="4"/><rect x="952.0" y="168.0" width="24.0" height="18.0" rx="2" fill="#F5B301" stroke="none" stroke-width="0" opacity="0.12233999649000157" data-step="4"/><rect x="978.0" y="168.0" width="24.0" height="18.0" rx="2" fill="#F5B301" stroke="none" stroke-width="0" opacity="0.8999964900026325" data-step="4"/><rect x="1004.0" y="168.0" width="24.0" height="18.0" rx="2" fill="#F5B301" stroke="none" stroke-width="0" opacity="0.12073997286148345" data-step="4"/><rect x="1030.0" y="168.0" width="24.0" height="18.0" rx="2" fill="#F5B301" stroke="none" stroke-width="0" opacity="0.8999996490000263" data-step="4"/><rect x="640.0" y="188.0" width="24.0" height="18.0" rx="2" fill="#22D3EE" stroke="none" stroke-width="0" opacity="0.7103059463401841" data-step="4"/><rect x="666.0" y="188.0" width="24.0" height="18.0" rx="2" fill="#22D3EE" stroke="none" stroke-width="0" opacity="0.6298420242736174" data-step="4"/><rect x="692.0" y="188.0" width="24.0" height="18.0" rx="2" fill="#F5B301" stroke="none" stroke-width="0" opacity="0.8637929775797974" data-step="4"/><rect x="718.0" y="188.0" width="24.0" height="18.0" rx="2" fill="#F5B301" stroke="none" stroke-width="0" opacity="0.3548872208166697" data-step="4"/><rect x="744.0" y="188.0" width="24.0" height="18.0" rx="2" fill="#F5B301" stroke="none" stroke-width="0" opacity="0.4237463070007474" data-step="4"/><rect x="770.0" y="188.0" width="24.0" height="18.0" rx="2" fill="#F5B301" stroke="none" stroke-width="0" opacity="0.8384275753222504" data-step="4"/><rect x="796.0" y="188.0" width="24.0" height="18.0" rx="2" fill="#F5B301" stroke="none" stroke-width="0" opacity="0.21840017189696298" data-step="4"/><rect x="822.0" y="188.0" width="24.0" height="18.0" rx="2" fill="#F5B301" stroke="none" stroke-width="0" opacity="0.8937683155639343" data-step="4"/><rect x="848.0" y="188.0" width="24.0" height="18.0" rx="2" fill="#F5B301" stroke="none" stroke-width="0" opacity="0.15119168066557465" data-step="4"/><rect x="874.0" y="188.0" width="24.0" height="18.0" rx="2" fill="#F5B301" stroke="none" stroke-width="0" opacity="0.8993760831955628" data-step="4"/><rect x="900.0" y="188.0" width="24.0" height="18.0" rx="2" fill="#F5B301" stroke="none" stroke-width="0" opacity="0.12986604320032882" data-step="4"/><rect x="926.0" y="188.0" width="24.0" height="18.0" rx="2" fill="#F5B301" stroke="none" stroke-width="0" opacity="0.8999376008319956" data-step="4"/><rect x="952.0" y="188.0" width="24.0" height="18.0" rx="2" fill="#F5B301" stroke="none" stroke-width="0" opacity="0.12311999168000665" data-step="4"/><rect x="978.0" y="188.0" width="24.0" height="18.0" rx="2" fill="#F5B301" stroke="none" stroke-width="0" opacity="0.89999376000832" data-step="4"/><rect x="1004.0" y="188.0" width="24.0" height="18.0" rx="2" fill="#F5B301" stroke="none" stroke-width="0" opacity="0.12098663036687105" data-step="4"/><rect x="1030.0" y="188.0" width="24.0" height="18.0" rx="2" fill="#F5B301" stroke="none" stroke-width="0" opacity="0.8999993760000832" data-step="4"/><rect x="640.0" y="208.0" width="24.0" height="18.0" rx="2" fill="#22D3EE" stroke="none" stroke-width="0" opacity="0.867960934237248" data-step="4"/><rect x="666.0" y="208.0" width="24.0" height="18.0" rx="2" fill="#F5B301" stroke="none" stroke-width="0" opacity="0.34125650466131646" data-step="4"/><rect x="692.0" y="208.0" width="24.0" height="18.0" rx="2" fill="#F5B301" stroke="none" stroke-width="0" opacity="0.8999582830958915" data-step="4"/><rect x="718.0" y="208.0" width="24.0" height="18.0" rx="2" fill="#22D3EE" stroke="none" stroke-width="0" opacity="0.12806700874606303" data-step="4"/><rect x="744.0" y="208.0" width="24.0" height="18.0" rx="2" fill="#F5B301" stroke="none" stroke-width="0" opacity="0.49395192011127836" data-step="4"/><rect x="770.0" y="208.0" width="24.0" height="18.0" rx="2" fill="#F5B301" stroke="none" stroke-width="0" opacity="0.8045143982744908" data-step="4"/><rect x="796.0" y="208.0" width="24.0" height="18.0" rx="2" fill="#F5B301" stroke="none" stroke-width="0" opacity="0.24281560058222806" data-step="4"/><rect x="822.0" y="208.0" width="24.0" height="18.0" rx="2" fill="#F5B301" stroke="none" stroke-width="0" opacity="0.8902702955804713" data-step="4"/><rect x="848.0" y="208.0" width="24.0" height="18.0" rx="2" fill="#F5B301" stroke="none" stroke-width="0" opacity="0.1589837520311291" data-step="4"/><rect x="874.0" y="208.0" width="24.0" height="18.0" rx="2" fill="#F5B301" stroke="none" stroke-width="0" opacity="0.8990252031080738" data-step="4"/><rect x="900.0" y="208.0" width="24.0" height="18.0" rx="2" fill="#F5B301" stroke="none" stroke-width="0" opacity="0.13233236901096024" data-step="4"/><rect x="926.0" y="208.0" width="24.0" height="18.0" rx="2" fill="#F5B301" stroke="none" stroke-width="0" opacity="0.8999025020312331" data-step="4"/><rect x="952.0" y="208.0" width="24.0" height="18.0" rx="2" fill="#F5B301" stroke="none" stroke-width="0" opacity="0.12389998375002031" data-step="4"/><rect x="978.0" y="208.0" width="24.0" height="18.0" rx="2" fill="#F5B301" stroke="none" stroke-width="0" opacity="0.8999902500203125" data-step="4"/><rect x="1004.0" y="208.0" width="24.0" height="18.0" rx="2" fill="#F5B301" stroke="none" stroke-width="0" opacity="0.12123328777359561" data-step="4"/><rect x="1030.0" y="208.0" width="24.0" height="18.0" rx="2" fill="#F5B301" stroke="none" stroke-width="0" opacity="0.8999990250002031" data-step="4"/><rect x="640.0" y="228.0" width="24.0" height="18.0" rx="2" fill="#22D3EE" stroke="none" stroke-width="0" opacity="0.3379440885951622" data-step="4"/><rect x="666.0" y="228.0" width="24.0" height="18.0" rx="2" fill="#F5B301" stroke="none" stroke-width="0" opacity="0.8689328235872855" data-step="4"/><rect x="692.0" y="228.0" width="24.0" height="18.0" rx="2" fill="#F5B301" stroke="none" stroke-width="0" opacity="0.8587755628520687" data-step="4"/><rect x="718.0" y="228.0" width="24.0" height="18.0" rx="2" fill="#22D3EE" stroke="none" stroke-width="0" opacity="0.37022123757309083" data-step="4"/><rect x="744.0" y="228.0" width="24.0" height="18.0" rx="2" fill="#F5B301" stroke="none" stroke-width="0" opacity="0.5604211292481276" data-step="4"/><rect x="770.0" y="228.0" width="24.0" height="18.0" rx="2" fill="#F5B301" stroke="none" stroke-width="0" opacity="0.7637617796295492" data-step="4"/><rect x="796.0" y="228.0" width="24.0" height="18.0" rx="2" fill="#F5B301" stroke="none" stroke-width="0" opacity="0.26710822390120315" data-step="4"/><rect x="822.0" y="228.0" width="24.0" height="18.0" rx="2" fill="#F5B301" stroke="none" stroke-width="0" opacity="0.8860020694884796" data-step="4"/><rect x="848.0" y="228.0" width="24.0" height="18.0" rx="2" fill="#F5B301" stroke="none" stroke-width="0" opacity="0.1667719250539668" data-step="4"/><rect x="874.0" y="228.0" width="24.0" height="18.0" rx="2" fill="#F5B301" stroke="none" stroke-width="0" opacity="0.8985964211494593" data-step="4"/><rect x="900.0" y="228.0" width="24.0" height="18.0" rx="2" fill="#F5B301" stroke="none" stroke-width="0" opacity="0.1347985714980043" data-step="4"/><rect x="926.0" y="228.0" width="24.0" height="18.0" rx="2" fill="#F5B301" stroke="none" stroke-width="0" opacity="0.8998596042119494" data-step="4"/><rect x="952.0" y="228.0" width="24.0" height="18.0" rx="2" fill="#F5B301" stroke="none" stroke-width="0" opacity="0.12467997192005054" data-step="4"/><rect x="978.0" y="228.0" width="24.0" height="18.0" rx="2" fill="#F5B301" stroke="none" stroke-width="0" opacity="0.89998596004212" data-step="4"/><rect x="1004.0" y="228.0" width="24.0" height="18.0" rx="2" fill="#F5B301" stroke="none" stroke-width="0" opacity="0.12147994505699139" data-step="4"/><rect x="1030.0" y="228.0" width="24.0" height="18.0" rx="2" fill="#F5B301" stroke="none" stroke-width="0" opacity="0.8999985960004212" data-step="4"/><rect x="640.0" y="248.0" width="24.0" height="18.0" rx="2" fill="#F5B301" stroke="none" stroke-width="0" opacity="0.6324495470006555" data-step="4"/><rect x="666.0" y="248.0" width="24.0" height="18.0" rx="2" fill="#F5B301" stroke="none" stroke-width="0" opacity="0.7080437583877776" data-step="4"/><rect x="692.0" y="248.0" width="24.0" height="18.0" rx="2" fill="#F5B301" stroke="none" stroke-width="0" opacity="0.744328884131567" data-step="4"/><rect x="718.0" y="248.0" width="24.0" height="18.0" rx="2" fill="#22D3EE" stroke="none" stroke-width="0" opacity="0.5875611665215925" data-step="4"/><rect x="744.0" y="248.0" width="24.0" height="18.0" rx="2" fill="#F5B301" stroke="none" stroke-width="0" opacity="0.622489796045399" data-step="4"/><rect x="770.0" y="248.0" width="24.0" height="18.0" rx="2" fill="#F5B301" stroke="none" stroke-width="0" opacity="0.716576906081901" data-step="4"/><rect x="796.0" y="248.0" width="24.0" height="18.0" rx="2" fill="#F5B301" stroke="none" stroke-width="0" opacity="0.29125375125488695" data-step="4"/><rect x="822.0" y="248.0" width="24.0" height="18.0" rx="2" fill="#F5B301" stroke="none" stroke-width="0" opacity="0.8809679051583774" data-step="4"/><rect x="848.0" y="248.0" width="24.0" height="18.0" rx="2" fill="#F5B301" stroke="none" stroke-width="0" opacity="0.17455542092327556" data-step="4"/><rect x="874.0" y="248.0" width="24.0" height="18.0" rx="2" fill="#F5B301" stroke="none" stroke-width="0" opacity="0.8980897801975581" data-step="4"/><rect x="900.0" y="248.0" width="24.0" height="18.0" rx="2" fill="#F5B301" stroke="none" stroke-width="0" opacity="0.13726462599945674" data-step="4"/><rect x="926.0" y="248.0" width="24.0" height="18.0" rx="2" fill="#F5B301" stroke="none" stroke-width="0" opacity="0.8998089078031225" data-step="4"/><rect x="952.0" y="248.0" width="24.0" height="18.0" rx="2" fill="#F5B301" stroke="none" stroke-width="0" opacity="0.12545995541010924" data-step="4"/><rect x="978.0" y="248.0" width="24.0" height="18.0" rx="2" fill="#F5B301" stroke="none" stroke-width="0" opacity="0.8999808900780324" data-step="4"/><rect x="1004.0" y="248.0" width="24.0" height="18.0" rx="2" fill="#F5B301" stroke="none" stroke-width="0" opacity="0.12172660219239266" data-step="4"/><rect x="1030.0" y="248.0" width="24.0" height="18.0" rx="2" fill="#F5B301" stroke="none" stroke-width="0" opacity="0.8999980890007804" data-step="4"/><rect x="640.0" y="268.0" width="24.0" height="18.0" rx="2" fill="#F5B301" stroke="none" stroke-width="0" opacity="0.8916994323662378" data-step="4"/><rect x="666.0" y="268.0" width="24.0" height="18.0" rx="2" fill="#22D3EE" stroke="none" stroke-width="0" opacity="0.23349002637071856" data-step="4"/><rect x="692.0" y="268.0" width="24.0" height="18.0" rx="2" fill="#F5B301" stroke="none" stroke-width="0" opacity="0.567967859914549" data-step="4"/><rect x="718.0" y="268.0" width="24.0" height="18.0" rx="2" fill="#22D3EE" stroke="none" stroke-width="0" opacity="0.7585333166590285" data-step="4"/><rect x="744.0" y="268.0" width="24.0" height="18.0" rx="2" fill="#F5B301" stroke="none" stroke-width="0" opacity="0.6795377509016278" data-step="4"/><rect x="770.0" y="268.0" width="24.0" height="18.0" rx="2" fill="#F5B301" stroke="none" stroke-width="0" opacity="0.663431233290789" data-step="4"/><rect x="796.0" y="268.0" width="24.0" height="18.0" rx="2" fill="#F5B301" stroke="none" stroke-width="0" opacity="0.31522803912798625" data-step="4"/><rect x="822.0" y="268.0" width="24.0" height="18.0" rx="2" fill="#F5B301" stroke="none" stroke-width="0" opacity="0.8751728363349952" data-step="4"/><rect x="848.0" y="268.0" width="24.0" height="18.0" rx="2" fill="#F5B301" stroke="none" stroke-width="0" opacity="0.1823334612959547" data-step="4"/><rect x="874.0" y="268.0" width="24.0" height="18.0" rx="2" fill="#F5B301" stroke="none" stroke-width="0" opacity="0.8975053309160432" data-step="4"/><rect x="900.0" y="268.0" width="24.0" height="18.0" rx="2" fill="#F5B301" stroke="none" stroke-width="0" opacity="0.13973050785479302" data-step="4"/><rect x="926.0" y="268.0" width="24.0" height="18.0" rx="2" fill="#F5B301" stroke="none" stroke-width="0" opacity="0.899750413311716" data-step="4"/><rect x="952.0" y="268.0" width="24.0" height="18.0" rx="2" fill="#F5B301" stroke="none" stroke-width="0" opacity="0.12623993344021298" data-step="4"/><rect x="978.0" y="268.0" width="24.0" height="18.0" rx="2" fill="#F5B301" stroke="none" stroke-width="0" opacity="0.8999750401331198" data-step="4"/><rect x="1004.0" y="268.0" width="24.0" height="18.0" rx="2" fill="#F5B301" stroke="none" stroke-width="0" opacity="0.12197325915513373" data-step="4"/><rect x="1030.0" y="268.0" width="24.0" height="18.0" rx="2" fill="#F5B301" stroke="none" stroke-width="0" opacity="0.8999975040013312" data-step="4"/><rect x="640.0" y="288.0" width="24.0" height="18.0" rx="2" fill="#F5B301" stroke="none" stroke-width="0" opacity="0.44145241848857014" data-step="4"/><rect x="666.0" y="288.0" width="24.0" height="18.0" rx="2" fill="#22D3EE" stroke="none" stroke-width="0" opacity="0.830681604270048" data-step="4"/><rect x="692.0" y="288.0" width="24.0" height="18.0" rx="2" fill="#F5B301" stroke="none" stroke-width="0" opacity="0.3471821141204344" data-step="4"/><rect x="718.0" y="288.0" width="24.0" height="18.0" rx="2" fill="#22D3EE" stroke="none" stroke-width="0" opacity="0.866182475687931" data-step="4"/><rect x="744.0" y="288.0" width="24.0" height="18.0" rx="2" fill="#F5B301" stroke="none" stroke-width="0" opacity="0.7309949895094371" data-step="4"/><rect x="770.0" y="288.0" width="24.0" height="18.0" rx="2" fill="#F5B301" stroke="none" stroke-width="0" opacity="0.6048557752511182" data-step="4"/><rect x="796.0" y="288.0" width="24.0" height="18.0" rx="2" fill="#F5B301" stroke="none" stroke-width="0" opacity="0.3390071152304185" data-step="4"/><rect x="822.0" y="288.0" width="24.0" height="18.0" rx="2" fill="#F5B301" stroke="none" stroke-width="0" opacity="0.8686226576042501" data-step="4"/><rect x="848.0" y="288.0" width="24.0" height="18.0" rx="2" fill="#F5B301" stroke="none" stroke-width="0" opacity="0.1901052683744486" data-step="4"/><rect x="874.0" y="288.0" width="24.0" height="18.0" rx="2" fill="#F5B301" stroke="none" stroke-width="0" opacity="0.8968431317493556" data-step="4"/><rect x="900.0" y="288.0" width="24.0" height="18.0" rx="2" fill="#F5B301" stroke="none" stroke-width="0" opacity="0.1421961924052152" data-step="4"/><rect x="926.0" y="288.0" width="24.0" height="18.0" rx="2" fill="#F5B301" stroke="none" stroke-width="0" opacity="0.8996841213226743" data-step="4"/><rect x="952.0" y="288.0" width="24.0" height="18.0" rx="2" fill="#F5B301" stroke="none" stroke-width="0" opacity="0.1270199052303838" data-step="4"/><rect x="978.0" y="288.0" width="24.0" height="18.0" rx="2" fill="#F5B301" stroke="none" stroke-width="0" opacity="0.8999684102132319" data-step="4"/><rect x="1004.0" y="288.0" width="24.0" height="18.0" rx="2" fill="#F5B301" stroke="none" stroke-width="0" opacity="0.12221991592054887" data-step="4"/><rect x="1030.0" y="288.0" width="24.0" height="18.0" rx="2" fill="#F5B301" stroke="none" stroke-width="0" opacity="0.8999968410021324" data-step="4"/><rect x="640.0" y="308.0" width="24.0" height="18.0" rx="2" fill="#22D3EE" stroke="none" stroke-width="0" opacity="0.5443364664937085" data-step="4"/><rect x="666.0" y="308.0" width="24.0" height="18.0" rx="2" fill="#22D3EE" stroke="none" stroke-width="0" opacity="0.774475792679633" data-step="4"/><rect x="692.0" y="308.0" width="24.0" height="18.0" rx="2" fill="#22D3EE" stroke="none" stroke-width="0" opacity="0.13613315459307399" data-step="4"/><rect x="718.0" y="308.0" width="24.0" height="18.0" rx="2" fill="#22D3EE" stroke="none" stroke-width="0" opacity="0.8998331368458742" data-step="4"/><rect x="744.0" y="308.0" width="24.0" height="18.0" rx="2" fill="#F5B301" stroke="none" stroke-width="0" opacity="0.7763473681501593" data-step="4"/><rect x="770.0" y="308.0" width="24.0" height="18.0" rx="2" fill="#F5B301" stroke="none" stroke-width="0" opacity="0.541435798577149" data-step="4"/><rect x="796.0" y="308.0" width="24.0" height="18.0" rx="2" fill="#F5B301" stroke="none" stroke-width="0" opacity="0.3625672024676049" data-step="4"/><rect x="822.0" y="308.0" width="24.0" height="18.0" rx="2" fill="#F5B301" stroke="none" stroke-width="0" opacity="0.8613239185990427" data-step="4"/><rect x="848.0" y="308.0" width="24.0" height="18.0" rx="2" fill="#F5B301" stroke="none" stroke-width="0" opacity="0.19787006498452597" data-step="4"/><rect x="874.0" y="308.0" width="24.0" height="18.0" rx="2" fill="#F5B301" stroke="none" stroke-width="0" opacity="0.8961032489168601" data-step="4"/><rect x="900.0" y="308.0" width="24.0" height="18.0" rx="2" fill="#F5B301" stroke="none" stroke-width="0" opacity="0.1446616549938983" data-step="4"/><rect x="926.0" y="308.0" width="24.0" height="18.0" rx="2" fill="#F5B301" stroke="none" stroke-width="0" opacity="0.8996100324989167" data-step="4"/><rect x="952.0" y="308.0" width="24.0" height="18.0" rx="2" fill="#F5B301" stroke="none" stroke-width="0" opacity="0.12779987000065" data-step="4"/><rect x="978.0" y="308.0" width="24.0" height="18.0" rx="2" fill="#F5B301" stroke="none" stroke-width="0" opacity="0.8999610003249989" data-step="4"/><rect x="1004.0" y="308.0" width="24.0" height="18.0" rx="2" fill="#F5B301" stroke="none" stroke-width="0" opacity="0.12246657246397243" data-step="4"/><rect x="1030.0" y="308.0" width="24.0" height="18.0" rx="2" fill="#F5B301" stroke="none" stroke-width="0" opacity="0.89999610000325" data-step="4"/><rect x="640.0" y="328.0" width="24.0" height="18.0" rx="2" fill="#22D3EE" stroke="none" stroke-width="0" opacity="0.8999923611095487" data-step="4"/><rect x="666.0" y="328.0" width="24.0" height="18.0" rx="2" fill="#F5B301" stroke="none" stroke-width="0" opacity="0.12345204443067961" data-step="4"/><rect x="692.0" y="328.0" width="24.0" height="18.0" rx="2" fill="#22D3EE" stroke="none" stroke-width="0" opacity="0.37784850740838766" data-step="4"/><rect x="718.0" y="328.0" width="24.0" height="18.0" rx="2" fill="#22D3EE" stroke="none" stroke-width="0" opacity="0.8561481829273687" data-step="4"/><rect x="744.0" y="328.0" width="24.0" height="18.0" rx="2" fill="#F5B301" stroke="none" stroke-width="0" opacity="0.8151417408479197" data-step="4"/><rect x="770.0" y="328.0" width="24.0" height="18.0" rx="2" fill="#F5B301" stroke="none" stroke-width="0" opacity="0.4738049747119503" data-step="4"/><rect x="796.0" y="328.0" width="24.0" height="18.0" rx="2" fill="#F5B301" stroke="none" stroke-width="0" opacity="0.3858847427155834" data-step="4"/><rect x="822.0" y="328.0" width="24.0" height="18.0" rx="2" fill="#F5B301" stroke="none" stroke-width="0" opacity="0.8532839174501702" data-step="4"/><rect x="848.0" y="328.0" width="24.0" height="18.0" rx="2" fill="#F5B301" stroke="none" stroke-width="0" opacity="0.20562707465299634" data-step="4"/><rect x="874.0" y="328.0" width="24.0" height="18.0" rx="2" fill="#F5B301" stroke="none" stroke-width="0" opacity="0.8952857564062235" data-step="4"/><rect x="900.0" y="328.0" width="24.0" height="18.0" rx="2" fill="#F5B301" stroke="none" stroke-width="0" opacity="0.14712687096623694" data-step="4"/><rect x="926.0" y="328.0" width="24.0" height="18.0" rx="2" fill="#F5B301" stroke="none" stroke-width="0" opacity="0.8995281475813308" data-step="4"/><rect x="952.0" y="328.0" width="24.0" height="18.0" rx="2" fill="#F5B301" stroke="none" stroke-width="0" opacity="0.12857982697104683" data-step="4"/><rect x="978.0" y="328.0" width="24.0" height="18.0" rx="2" fill="#F5B301" stroke="none" stroke-width="0" opacity="0.8999528104758306" data-step="4"/><rect x="1004.0" y="328.0" width="24.0" height="18.0" rx="2" fill="#F5B301" stroke="none" stroke-width="0" opacity="0.12271322876073874" data-step="4"/><rect x="1030.0" y="328.0" width="24.0" height="18.0" rx="2" fill="#F5B301" stroke="none" stroke-width="0" opacity="0.8999952810047583" data-step="4"/><text x="848.0" y="370.0" text-anchor="middle" dominant-baseline="middle" fill="#8FA6C6" style="font:400 12px Inter, system-ui, -apple-system, 'Segoe UI', sans-serif" data-step="4">dimension →</text><text x="628.0" y="228.0" text-anchor="end" dominant-baseline="middle" fill="#8FA6C6" style="font:400 12px Inter, system-ui, -apple-system, 'Segoe UI', sans-serif" data-step="4">position</text><text x="560.0" y="416.0" text-anchor="middle" dominant-baseline="middle" fill="#B6C9E4" style="font:400 13.5px Inter, system-ui, -apple-system, 'Segoe UI', sans-serif" data-step="5">Each dimension is a wave of a different frequency, so every position gets a different combination.</text><text x="560.0" y="440.0" text-anchor="middle" dominant-baseline="middle" fill="#22D3EE" style="font:400 13px Inter, system-ui, -apple-system, 'Segoe UI', sans-serif" data-step="5">Nothing is learned here, and nothing needs to be — the values come from a formula, so position 5000 works even if training never saw one.</text></svg>